<?xml version="1.0" encoding="UTF-8" standalone="no"?>
<!-- Created with Inkscape (http://www.inkscape.org/) -->

<svg
   xmlns:dc="http://purl.org/dc/elements/1.1/"
   xmlns:cc="http://creativecommons.org/ns#"
   xmlns:rdf="http://www.w3.org/1999/02/22-rdf-syntax-ns#"
   xmlns:svg="http://www.w3.org/2000/svg"
   xmlns="http://www.w3.org/2000/svg"
   xmlns:sodipodi="http://sodipodi.sourceforge.net/DTD/sodipodi-0.dtd"
   xmlns:inkscape="http://www.inkscape.org/namespaces/inkscape"
   id="svg7384"
   height="16"
   width="16"
   version="1.1"
   inkscape:version="0.48.2 r9819"
   sodipodi:docname="settings_hover.svg">
  <defs
     id="defs14" />
  <sodipodi:namedview
     pagecolor="#ffffff"
     bordercolor="#666666"
     borderopacity="1"
     objecttolerance="10"
     gridtolerance="10"
     guidetolerance="10"
     inkscape:pageopacity="0"
     inkscape:pageshadow="2"
     inkscape:window-width="958"
     inkscape:window-height="736"
     id="namedview12"
     showgrid="false"
     inkscape:zoom="14.75"
     inkscape:cx="8"
     inkscape:cy="8"
     inkscape:window-x="1920"
     inkscape:window-y="28"
     inkscape:window-maximized="0"
     inkscape:current-layer="svg7384" />
  <metadata
     id="metadata90">
    <rdf:RDF>
      <cc:Work
         rdf:about="">
        <dc:format>image/svg+xml</dc:format>
        <dc:type
           rdf:resource="http://purl.org/dc/dcmitype/StillImage" />
        <dc:title>Gnome Symbolic Icon Theme</dc:title>
      </cc:Work>
    </rdf:RDF>
  </metadata>
  <title
     id="title9167">Gnome Symbolic Icon Theme</title>
  <g
     id="layer11"
     transform="translate(-242,-381)">
    <rect
       id="rect3620-8-8-7"
       style="fill:none"
       rx="0"
       ry="0"
       height="16"
       width="16"
       y="381"
       x="242" />
    <g
       id="g5335-4-9"
       transform="matrix(1.0011 0 0 1 7.7339 20)">
      <g
         id="g5400">
        <path
           id="rect5333-9"
           style="fill:#cccccc"
           d="m243.5 389c-0.831 0-1.5 0.669-1.5 1.5v4c0 0.831 0.669 1.5 1.5 1.5h9c0.831 0 1.5-0.669 1.5-1.5v-4c0-0.831-0.669-1.5-1.5-1.5zm0.0625 1c3.182 0.26867 6.1087 0.23073 8.875 0 0.30192-0.0252 0.5625 0.25953 0.5625 0.5625v2.875c0 0.30297-0.26145 0.52842-0.5625 0.5625-3.0007 0.33966-5.9575 0.32696-8.875 0-0.3-0.03-0.56-0.26-0.56-0.56v-2.875c0-0.30297 0.2606-0.58799 0.5625-0.5625z"
           transform="translate(-8,-20)" />
        <path
           id="rect5333-9-8"
           style="fill:#cccccc"
           d="m251.5 381c-0.831 0-1.5 0.669-1.5 1.5v4c0 0.831 0.669 1.5 1.5 1.5h4c0.831 0 1.5-0.669 1.5-1.5v-4c0-0.831-0.669-1.5-1.5-1.5zm0.0625 1c1.2917 0.1279 2.5833 0.12207 3.875 0 0.30163-0.0285 0.5625 0.25953 0.5625 0.5625v2.875c0 0.30297-0.26178 0.52562-0.5625 0.5625-1.2533 0.1537-2.5386 0.17922-3.875 0-0.3-0.04-0.56-0.26-0.56-0.56v-2.875c0-0.30297 0.261-0.59235 0.5625-0.5625z"
           transform="translate(-8,-20)" />
        <path
           id="path11636"
           style="fill:#e6e6e6"
           d="m235.5 362c-0.831 0-1.5 0.669-1.5 1.5v3c0 0.831 0.669 1.5 1.5 1.5h4c0.831 0 1.5-0.669 1.5-1.5v-3c0-0.831-0.669-1.5-1.5-1.5zm0.0625 1c1.69 0.19941 2.8447 0.13085 3.875 0 0.30056-0.0382 0.5625 0.25953 0.5625 0.5625v2.875c0 0.30297-0.26201 0.5238-0.5625 0.5625-1.2136 0.1563-2.495 0.17677-3.875 0-0.3-0.04-0.56-0.26-0.56-0.56v-2.875c0-0.30297 0.26161-0.598 0.5625-0.5625z" />
      </g>
    </g>
  </g>
  <path
     style="fill:#e6e6e6"
     d="M 9.0540996,6.8884115 C 8.669435,6.7479783 8.3552856,6.4773778 8.1967707,6.1499298 8.0603707,5.8681649 8.0542373,5.754881 8.0542373,3.5173302 l 0,-2.3381648 0.1717362,-0.34462981 C 8.4400904,0.40485911 8.7833464,0.15913401 9.3038642,0.06291106 9.5502478,0.01736458 10.481995,-0.00188787 11.775107,0.01184841 13.75026,0.0328298 13.863989,0.0409894 14.122034,0.18023167 14.468117,0.36697961 14.73064,0.6441918 14.8642,0.96392414 c 0.08825,0.21126206 0.105051,0.62276326 0.103803,2.54237286 -0.0016,2.5248802 -0.01226,2.5971036 -0.445026,3.0254218 -0.425366,0.4209992 -0.391482,0.4159504 -2.909418,0.4334968 -1.8144286,0.012644 -2.3592302,-0.0037 -2.5594594,-0.076804 l 0,0 z M 12.922887,5.0836853 c 0.642783,-0.06771 0.863206,-0.1401372 1.01055,-0.3320475 0.0595,-0.077495 0.08319,-0.5630154 0.08475,-1.7365526 0.0029,-2.17475212 0.07401,-2.08237089 -1.531659,-1.9891796 -0.590469,0.03427 -1.438716,0.034129 -2,-3.322e-4 -1.0035754,-0.0616179 -1.2289978,-0.0323632 -1.3907072,0.1804825 -0.1074354,0.141409 -0.1320592,3.3389748 -0.027221,3.5348662 0.090903,0.1698538 0.3816703,0.2764649 0.9265309,0.3397165 0.6757866,0.07845 2.1969206,0.080034 2.9277606,0.00305 l 0,-7e-7 z"
     id="path2991"
     inkscape:connector-curvature="0" />
  <path
     style="fill:#e6e6e6"
     d="M 1.0548529,14.886581 C 0.6745318,14.750843 0.48059116,14.602943 0.27444852,14.29144 l -0.18631293,-0.281538 0,-2.518393 0,-2.5183929 L 0.25762712,8.722746 C 0.4961509,8.3704026 0.84578142,8.1475923 1.2886031,8.0657322 c 0.2453545,-0.045356 1.9998323,-0.06347 4.945819,-0.051063 4.2243939,0.017792 4.5857749,0.028337 4.8358389,0.1411086 0.344865,0.1555238 0.553025,0.3510598 0.736337,0.6916794 0.139188,0.258632 0.146973,0.3716223 0.168155,2.4406784 0.02663,2.601213 0.0042,2.759677 -0.455011,3.218918 -0.225684,0.225684 -0.407623,0.339607 -0.632997,0.396357 -0.484582,0.122019 -9.4860259,0.106611 -9.8318921,-0.01683 l 0,0 z m 8.3772359,-1.771 c 0.6273102,-0.05455 1.1977792,-0.129802 1.2677102,-0.167228 0.319293,-0.170881 0.337549,-0.275561 0.33649,-1.92954 C 11.03557,9.8965979 11.011184,9.4099699 10.949559,9.2881356 10.800062,8.9925764 10.612551,8.9518277 9.7152542,9.0199051 8.0391478,9.1470704 4.7046645,9.1688105 3.0711864,9.063223 1.2514673,8.9455969 1.1294536,8.9655984 1.00845,9.4013639 c -0.0399637,0.1439197 -0.0722691,0.8725491 -0.0724787,1.6347121 -4e-4,1.45481 0.0511606,1.759241 0.32255838,1.904489 0.1366281,0.07312 2.112562,0.26357 3.1685889,0.305403 1.0859565,0.04302 3.8341756,-0.02858 5.0049702,-0.130387 z"
     id="path2993"
     inkscape:connector-curvature="0" />
  <path
     style="fill:#ececec"
     d="M 3.0779661,14.921511 C 0.77862908,14.875119 0.75112014,14.868744 0.31885879,14.282121 L 0.06101695,13.932203 0.07880681,11.435416 0.09659668,8.9386281 0.45168817,8.584205 C 0.69931634,8.3370429 0.89910915,8.2042007 1.1118644,8.145254 1.3455212,8.0805163 2.5280501,8.0655221 6.1627119,8.0812106 l 4.7457631,0.020484 0.29113,0.16671 c 0.160122,0.091691 0.377959,0.2977956 0.484082,0.4580114 0.191296,0.2888052 0.193383,0.3033531 0.243553,1.6976967 0.06283,1.746235 0.01061,3.300028 -0.121513,3.61567 -0.130534,0.311843 -0.593726,0.717779 -0.91036,0.79783 -0.331411,0.08379 -5.2216706,0.13627 -7.8174009,0.0839 l 0,0 z m 5.4237288,-1.731249 c 0.2423729,-0.01685 0.6012007,-0.03065 0.7973959,-0.03067 0.1961946,-1.3e-5 0.3904645,-0.02088 0.4317106,-0.04637 0.041246,-0.02549 0.2010623,-0.05357 0.3551466,-0.06238 0.559565,-0.03203 0.910271,-0.163103 0.821358,-0.306969 -0.01847,-0.02988 0.0048,-0.0671 0.05159,-0.08271 0.12472,-0.04157 0.121968,-3.2068512 -0.003,-3.4257687 -0.04848,-0.084943 -0.114519,-0.1381425 -0.146751,-0.1182217 -0.03223,0.019921 -0.07136,-0.00211 -0.08695,-0.048948 -0.01953,-0.058677 -0.163672,-0.080669 -0.463418,-0.070705 -1.4704271,0.048883 -7.9187677,0.058909 -8.0433988,0.012505 -0.082885,-0.03086 -0.3521637,-0.037296 -0.5983979,-0.014303 -0.67346255,0.062889 -0.67452493,0.065747 -0.67458371,1.8147872 -6.386e-5,1.899363 0.0483445,2.117306 0.48563071,2.186388 0.5121233,0.08091 1.3200536,0.152446 2.1482673,0.190225 0.2927381,0.01335 0.5520601,0.04518 0.5762711,0.07073 0.043337,0.04573 3.4896554,-0.0078 4.3491022,-0.06758 l 0,0 z"
     id="path2992"
     inkscape:connector-curvature="0" />
  <path
     style="fill:#ececec"
     d="M 1.036276,6.8912252 C 0.63354536,6.7444986 0.38784669,6.5277724 0.20244391,6.1557175 l -0.17532527,-0.351832 0,-1.8094552 0,-1.8094552 L 0.2165574,1.8223479 C 0.35447814,1.5583374 0.49592168,1.4041239 0.73666454,1.255284 l 0.33066836,-0.2044365 2.4120963,0 c 2.3399416,0 2.4202084,0.00437 2.6832827,0.1459445 0.3403874,0.1831865 0.5404596,0.3958547 0.6747301,0.71721 0.1543946,0.3695185 0.1543946,3.8024775 0,4.171996 C 6.7031715,6.4073533 6.5030993,6.6200216 6.1627119,6.803208 5.9021603,6.9434292 5.8011291,6.9497675 3.5864407,6.9648338 1.8167814,6.9768725 1.2244287,6.9597748 1.036276,6.8912252 l 0,0 z M 5.3089445,6.029306 C 5.5288379,5.9935787 5.7390784,5.9100334 5.8343682,5.8205133 5.9927151,5.6717541 5.9932203,5.6659166 5.9932203,3.9851004 l 0,-1.686179 L 5.8243292,2.1300302 C 5.6596774,1.9653784 5.6396818,1.9624777 5.0277191,2.0144679 4.2229471,2.0828384 2.8135804,2.0827685 2.0075854,2.0143187 L 1.3778827,1.9608396 1.1770769,2.1616454 0.97627119,2.3624511 l 0,1.6231908 c 0,2.1031889 -0.0732778,1.9896412 1.36606561,2.11679 0.6994045,0.061784 2.3932452,0.020031 2.9666077,-0.073126 l 0,0 z"
     id="path2994"
     inkscape:connector-curvature="0" />
  <path
     style="fill:#f2f2f2"
     d="M 8.9417914,6.7912949 C 8.5987479,6.6323231 8.2589737,6.2490648 8.1667884,5.9171074 8.123687,5.7619003 8.0955225,4.7626551 8.0952933,3.3805433 L 8.0949153,1.1000698 8.3152542,0.77037383 C 8.472682,0.53481281 8.6420584,0.38663193 8.9084746,0.25138826 l 0.3728813,-0.18928971 2.3050851,0.01979818 2.305084,0.01979819 0.320232,0.18824258 c 0.207659,0.12206857 0.386406,0.3008156 0.508475,0.50847457 l 0.188243,0.32023203 0.02263,1.8983051 c 0.02816,2.3625452 -0.03092,2.9984997 -0.310693,3.3446663 -0.425624,0.5266231 -0.374562,0.5175743 -3.033966,0.5376808 -2.1918322,0.016571 -2.3936174,0.00833 -2.6446496,-0.1080014 z M 13.145763,5.0777852 c 0.261017,-0.035615 0.484809,-0.094571 0.497316,-0.1310142 0.01251,-0.036443 0.04719,-0.051152 0.07706,-0.032686 0.06471,0.039994 0.221667,-0.1363186 0.261549,-0.2938062 0.07642,-0.3017858 0.08557,-2.7381968 0.01162,-3.0944197 C 13.922099,1.182834 13.888197,1.1300692 13.684264,1.0448603 13.460198,0.95123973 12.899596,0.91283342 12.826344,0.98608508 12.768798,1.0436315 10.196601,1.057242 10.196606,1 c 5e-6,-0.0608648 -0.5873465,-0.0557737 -0.7796568,0.00676 -0.3810746,0.1239101 -0.3693442,0.076296 -0.3955739,1.6056343 -0.013409,0.7818283 -0.010789,1.5999722 0.00582,1.8180977 0.030165,0.3960902 0.03059,0.3967628 0.3362137,0.5319547 0.1812692,0.080184 0.3996431,0.124432 0.5357063,0.1085474 0.1263334,-0.014749 0.2296964,-0.00423 0.2296964,0.023369 0,0.073084 2.458855,0.059574 3.016949,-0.016576 l 0,0 z"
     id="path2996"
     inkscape:connector-curvature="0" />
  <path
     style="fill:#f2f2f2"
     d="M 1.5909609,14.845398 C 0.80425668,14.781089 0.6853478,14.724909 0.31525424,14.242668 l -0.22033899,-0.287107 0,-2.488804 0,-2.4888034 0.3220339,-0.3121943 C 1.0483335,8.0536667 0.57220357,8.0998692 6.0868313,8.1155673 l 4.8732717,0.013872 0.271815,0.1883679 c 0.149498,0.1036023 0.345351,0.2994885 0.435229,0.4353025 0.153139,0.231409 0.167713,0.3380461 0.231792,1.696065 0.06321,1.339623 0.04574,2.453434 -0.05132,3.272582 -0.03146,0.265501 -0.09545,0.393004 -0.319745,0.637127 -0.496609,0.540506 -0.234705,0.51273 -4.9922778,0.529447 -2.3305085,0.0082 -4.555593,-0.01113 -4.9446323,-0.04293 z m 7.0463272,-1.648973 c 0.540678,-0.02097 1.1508475,-0.07007 1.3559322,-0.109117 0.2050847,-0.03905 0.4574877,-0.08028 0.5608947,-0.09162 0.254486,-0.02792 0.397339,-0.186893 0.44781,-0.49834 0.06045,-0.373058 0.05097,-2.9356666 -0.01171,-3.1628336 C 10.891543,8.9768671 10.868836,8.9753043 6.3426159,9.0146725 4.0314195,9.0347749 2.1674662,9.0247995 2.1473662,8.9922207 2.1274723,8.959976 1.9549901,8.9534435 1.7640723,8.9777041 1.5731546,9.0019647 1.3630456,9.022577 1.2971636,9.0235092 1.2312815,9.0244414 1.1245018,9.1058448 1.0598755,9.2044057 0.95827058,9.3593618 0.94237288,9.5674815 0.94237288,10.742651 c 0,1.956315 0.0538391,2.203993 0.48995252,2.253947 0.1034074,0.01184 0.279539,0.03841 0.3914034,0.05902 1.0930335,0.201458 3.8046448,0.257494 6.8135593,0.140803 l 0,0 z"
     id="path2998"
     inkscape:connector-curvature="0" />
  <path
     style="fill:#f2f2f2"
     d="M 5.7811087,6.9517302 C 5.7627616,6.9333831 4.6589133,6.9162115 3.3281125,6.9135711 1.7455211,6.910431 0.90847458,6.8850541 0.90847458,6.8402144 c 0,-0.037706 -0.0279027,-0.051311 -0.0620061,-0.030234 -0.0341033,0.021077 -0.0722389,0.01525 -0.0847458,-0.012948 C 0.74921593,6.7688342 0.62351471,6.6466102 0.4823867,6.5254237 0.3412587,6.4042373 0.24511966,6.3050847 0.26874438,6.3050847 c 0.0236247,0 -0.0210764,-0.1085235 -0.0993358,-0.2411633 C 0.0343675,5.8350439 0.02711864,5.7296328 0.02711864,3.9947775 l 0,-1.8279805 L 0.2038743,1.8800087 C 0.39960127,1.5624391 0.81117892,1.1456422 0.87048312,1.2049464 c 0.0208953,0.020895 0.0379915,0.00314 0.0379915,-0.039465 0,-0.056323 0.67517922,-0.082528 2.47460382,-0.096045 1.3610321,-0.010224 2.4745914,0.00756 2.4745762,0.039512 -1.51e-5,0.031956 0.043505,0.041396 0.096711,0.020979 0.053206,-0.020417 0.1338246,0.00756 0.1791526,0.062182 0.045328,0.054617 0.096355,0.085363 0.1133927,0.068325 0.029878,-0.029878 0.2766414,0.208384 0.4966359,0.4795268 0.058442,0.07203 0.094035,0.1676325 0.079096,0.2124504 -0.01494,0.044818 5.614e-4,0.081487 0.034446,0.081487 0.035532,0 0.061609,0.8322108 0.061609,1.9661017 0,1.1338909 -0.026077,1.9661017 -0.061609,1.9661017 -0.033885,0 -0.049386,0.036669 -0.034446,0.081487 0.014939,0.044818 -0.020654,0.1404206 -0.079096,0.2124504 -0.1988703,0.2451074 -0.4791396,0.5244488 -0.4791396,0.4775535 0,-0.025709 -0.055866,0.00381 -0.1241459,0.065607 -0.06828,0.061793 -0.1462103,0.090286 -0.1731778,0.063319 -0.026968,-0.026968 -0.072338,-0.011321 -0.100824,0.034769 -0.028486,0.046091 -0.066803,0.06879 -0.08515,0.050443 z M 4.8195995,6.07246 C 5.4374276,6.0354128 5.8097092,5.9111298 5.9199667,5.7051119 5.9666718,5.6178425 5.9932203,4.9715611 5.9932203,3.9218697 l 0,-1.6463664 L 5.8329105,2.1377517 C 5.7066474,2.0292559 5.587858,2.0024189 5.2735885,2.0113897 4.2279241,2.0412378 2.3778047,2.0358603 1.8870263,2.0015465 1.347207,1.9638038 1.3378705,1.9658738 1.1630683,2.1620595 l -0.17708593,0.1987488 -0.0071,1.5211433 c -0.006918,1.4822266 0.0264656,1.783929 0.21866239,1.9761258 0.1185857,0.1185857 0.4057524,0.1822782 0.9990655,0.2215893 0.279661,0.01853 0.5151176,0.040252 0.5232368,0.048271 0.021458,0.021195 1.4509603,-0.016574 2.0997525,-0.055478 l 0,0 z"
     id="path3000"
     inkscape:connector-curvature="0" />
  <path
     style="fill:#f9f9f9"
     d="M 8.9423729,6.7510999 C 8.6884635,6.6374337 8.3293616,6.2637151 8.2359576,6.0159308 8.1951704,5.9077296 8.1478268,4.832814 8.1239815,3.473558 L 8.0826693,1.1186441 8.3430296,0.78635824 C 8.4862277,0.60360101 8.7586033,0.36701556 8.9483087,0.26061279 l 0.3449189,-0.1934596 2.3224114,0.04531163 2.322411,0.0453116 0.273492,0.18367952 c 0.150421,0.10102373 0.363182,0.31721895 0.472803,0.48043379 l 0.199311,0.29675434 -0.02182,2.3728813 c -0.02399,2.607716 -0.03001,2.648385 -0.45108,3.0442821 -0.138324,0.1300545 -0.319399,0.2149299 -0.533774,0.2501959 -0.178439,0.029355 -1.31596,0.053996 -2.527824,0.054759 -1.7003513,0.00107 -2.2498247,-0.019399 -2.4067801,-0.089663 z M 13.586441,5.0058221 c 0.441858,-0.192659 0.440722,-0.1878045 0.440256,-1.8805365 -2.32e-4,-0.8426359 -0.02442,-1.6235907 -0.05375,-1.7354551 -0.05525,-0.2107012 -0.231237,-0.39304196 -0.32401,-0.3357054 -0.02922,0.018058 -0.06767,0.0093 -0.08545,-0.019465 -0.04111,-0.066526 -4.0945779,-0.057922 -4.2989237,0.00912 -0.084472,0.027716 -0.1747666,0.1310754 -0.2026055,0.2319204 -0.027621,0.1000571 -0.050574,0.9169514 -0.051005,1.8153208 -6.305e-4,1.3067899 0.018333,1.6564836 0.094823,1.7488481 0.052584,0.063497 0.1345115,0.1005205 0.1820605,0.082274 0.047549,-0.018246 0.096886,-0.00188 0.1096378,0.03638 0.044238,0.1327143 0.7734855,0.1845702 2.3584565,0.1677071 1.250713,-0.013307 1.644232,-0.039193 1.830509,-0.1204131 z"
     id="path3002"
     inkscape:connector-curvature="0" />
  <path
     style="fill:#f9f9f9"
     d="M 1.165898,14.779665 C 0.78091993,14.712475 0.6456358,14.623369 0.33468117,14.23218 L 0.09623133,13.932203 0.09557329,11.449955 0.09491525,8.9677074 0.43202726,8.6523786 C 0.61743887,8.4789477 0.85387953,8.2993491 0.95745098,8.2532706 1.0999323,8.1898813 2.3435759,8.1646653 6.0674289,8.149661 l 4.9216661,-0.01983 0.347589,0.3125121 c 0.220793,0.1985118 0.374555,0.4035964 0.421513,0.5622034 0.10606,0.358238 0.168591,4.0015559 0.0785,4.5736189 -0.05493,0.348775 -0.125437,0.526525 -0.292566,0.737542 -0.413812,0.522481 -0.139408,0.496541 -5.3814171,0.50873 -2.5728814,0.006 -4.8214476,-0.01417 -4.9968139,-0.04477 z M 8.5016949,13.203617 C 9.9455247,13.152558 10.648609,13.045689 10.8472,12.847099 11.030467,12.663832 11.04002,12.558688 11.039667,10.728895 11.039396,9.4603532 11.025542,9.2744526 10.923454,9.1723641 10.772555,9.0214649 10.684073,9.0187633 5.4972641,9.0066778 0.7276642,8.9955645 1.0765279,8.9573972 0.97133437,9.5018361 c -0.0757457,0.3920293 -0.0740833,2.2070639 0.002567,2.8022989 0.067573,0.524747 0.23694975,0.748579 0.52481735,0.69355 0.085535,-0.01635 0.1555188,-0.0081 0.1555188,0.01839 0,0.04385 1.2548398,0.177143 2.1694915,0.230445 0.5209748,0.03036 3.3363654,0.0045 4.6779661,-0.04291 l 0,0 z"
     id="path3004"
     inkscape:connector-curvature="0" />
  <path
     style="fill:#f9f9f9"
     d="M 1.4375484,6.8531191 C 0.80568346,6.8148789 0.77101064,6.8044467 0.54378163,6.5842077 0.41376165,6.4581874 0.27112967,6.2675598 0.22682166,6.1605908 0.18251365,6.0536218 0.12708159,5.9661207 0.1036393,5.9661439 0.080197,5.9661671 0.06736829,5.8059976 0.07513104,5.6102117 0.08619208,5.3312388 0.07615451,5.2909003 0.02872782,5.4237288 -0.03374351,5.5986929 -0.03402288,2.3601366 0.02844751,2.1742979 0.07674332,2.0306261 0.22859803,1.8367427 0.56949153,1.4835096 0.87402427,1.1679535 0.87561892,1.1672964 1.4508475,1.1203725 c 0.3169491,-0.025855 1.4610169,-0.036821 2.5423728,-0.024369 1.6766262,0.019307 1.9960475,0.039217 2.1694916,0.1352317 0.2687685,0.1487834 0.5503417,0.4517807 0.6397545,0.6884323 0.09739,0.2577624 0.09739,3.902902 0,4.1606644 C 6.6999485,6.3516685 6.4105587,6.640583 6.0949153,6.7867212 5.8499142,6.9001529 5.6437044,6.911341 3.959322,6.9025894 2.9338983,6.8972616 1.7991002,6.875 1.4375484,6.8531191 z M 4.2644068,6.0916352 C 4.7023404,6.0853654 5.1780763,6.0358908 5.4169492,5.9717764 5.9740405,5.8222509 5.9846132,5.7824191 5.9893938,3.8151222 L 5.9932203,2.240414 5.8242638,2.1297094 C 5.6785233,2.0342165 5.3598875,2.0165504 3.5053744,2.0011428 L 1.3554416,1.9832807 1.1647567,2.1739656 0.9740718,2.3646505 0.99212061,3.9450372 c 0.0155582,1.3623012 0.0346261,1.6107239 0.13817799,1.8002305 0.066071,0.1209142 0.1423422,0.2164539 0.1694915,0.2123104 0.027149,-0.00414 0.064617,-0.00138 0.083261,0.00614 0.066784,0.026948 0.3796342,0.067888 0.7724501,0.1010833 0.2197628,0.018572 0.4180679,0.052696 0.440678,0.075833 0.02261,0.023137 0.2394143,0.023978 0.4817872,0.00187 0.2423729,-0.022108 0.7762712,-0.045001 1.1864407,-0.050874 z"
     id="path3006"
     inkscape:connector-curvature="0" />
  <path
     style="fill:#f9f9f9"
     d="M 9.7877812,6.7836495 C 8.852743,6.7419481 8.7231126,6.6888738 8.3806239,6.2075194 8.2249275,5.9886942 8.2190807,5.9290293 8.1601313,3.9574685 8.0684488,0.89114983 8.0526733,1.1585026 8.3454729,0.81643214 8.4832796,0.65543597 8.7502287,0.42512353 8.9386932,0.30462667 l 0.3426627,-0.2190852 2.3416501,0.04458011 2.341649,0.0445801 0.256367,0.19554056 c 0.141002,0.10754732 0.345734,0.32543124 0.454961,0.4841865 0.198362,0.28831025 0.198588,0.28981405 0.193721,1.29337975 -0.0027,0.5526036 -0.02698,1.6470205 -0.054,2.4320375 -0.04504,1.3084707 -0.06167,1.447589 -0.199712,1.6709512 -0.275232,0.4453345 -0.392352,0.4829774 -1.673618,0.5379072 -1.25491,0.0538 -1.856534,0.052836 -3.1545918,-0.00506 l 0,2.7e-6 z M 13.196391,5.0924256 c 0.489094,-0.061104 0.752528,-0.2463063 0.792574,-0.5572067 0.02839,-0.2204392 0.03786,-2.5742511 0.01215,-3.0220032 C 13.994305,1.3946369 13.932812,1.2285555 13.864461,1.144146 13.74305,0.99421037 13.703386,0.99000142 12.142954,0.96147139 10.279865,0.9274078 9.2909241,0.983168 9.1435001,1.1305919 c -0.055411,0.055411 -0.1025781,0.182171 -0.104815,0.2816882 -0.00224,0.099517 -0.01886,0.7911097 -0.03694,1.5368724 -0.01808,0.7457628 -0.00704,1.4779661 0.024525,1.6271187 0.067057,0.3168248 0.2657768,0.4447628 0.7974586,0.5134116 0.4672262,0.060327 2.8959322,0.062302 3.3726622,0.00274 l 0,-3e-7 z"
     id="path3008"
     inkscape:connector-curvature="0" />
  <path
     style="fill:#ececec"
     d="M 9.620339,6.7843546 C 8.8617317,6.7411724 8.6991975,6.6690303 8.4054138,6.2451003 8.2296613,5.9914894 8.226512,5.9658232 8.1624761,4.2652656 8.1267938,3.3176746 8.0969953,2.2198982 8.0962572,1.8257626 L 8.0949153,1.1091523 8.3410361,0.82161546 C 8.4764026,0.66347019 8.7386201,0.43207739 8.9237416,0.30740925 L 9.2603263,0.08073992 11.575926,0.11642051 c 2.63646,0.0406247 2.539426,0.0200099 3.032927,0.6443361 l 0.265723,0.33616509 -0.0035,1.3667934 c -0.0019,0.7517364 -0.02788,1.8592485 -0.05772,2.4611381 -0.05916,1.1928523 -0.133416,1.4289978 -0.531375,1.6897507 -0.301192,0.1973507 -2.664798,0.2834185 -4.661681,0.1697507 z m 3.978457,-1.7879331 c 0.136354,-0.056973 0.276839,-0.1595591 0.312187,-0.2279701 0.170005,-0.3290137 0.148845,-3.3362266 -0.0247,-3.5097675 -0.0495,-0.0495 -0.0726,-0.1074009 -0.05133,-0.1286693 0.06397,-0.063966 -0.299996,-0.1298051 -0.553785,-0.1001766 -0.130407,0.015224 -0.237104,0.0049 -0.237104,-0.022954 0,-0.0278487 -0.701695,-0.0484573 -1.559322,-0.0457967 -0.857627,0.00266 -1.5593223,0.0241647 -1.5593223,0.047787 0,0.023622 -0.1389705,0.031897 -0.3088236,0.018388 -0.4588964,-0.0364975 -0.552146,0.079215 -0.582121,0.7223464 -0.041903,0.8990558 -0.026018,2.7509639 0.025165,2.9336831 0.1064773,0.3801185 0.664604,0.4686478 2.7649479,0.4385716 1.176764,-0.016851 1.58306,-0.045577 1.774204,-0.1254424 l 0,0 z"
     id="path3010"
     inkscape:connector-curvature="0" />
  <path
     style="fill:#ececec"
     d=""
     id="path3012"
     inkscape:connector-curvature="0" />
  <path
     style="fill:#ececec"
     d="M 2.4,6.8445816 C 0.67153363,6.8029123 0.7034722,6.8120262 0.3150384,6.2496224 L 0.06602041,5.8890752 0.02962038,4.0801308 -0.00677966,2.2711864 0.17340579,2 C 0.27250778,1.8508475 0.47781112,1.6088292 0.62963539,1.4621817 L 0.90567959,1.1955499 1.7375856,1.1382928 c 0.4575482,-0.031491 1.5793636,-0.038543 2.4929229,-0.01567 1.9048967,0.047693 2.0990079,0.095058 2.428202,0.592504 l 0.1819675,0.2749711 0,2.0079327 c 0,1.7942617 -0.012561,2.0271043 -0.1180455,2.1880934 C 6.5299919,6.4801302 6.2462689,6.7110317 5.9932203,6.7797391 5.6800862,6.8647609 4.2829094,6.889974 2.4,6.8445816 z M 4.6711864,6.0658262 C 5.3877738,6.0280816 5.7380503,5.9183466 5.8581277,5.6939798 5.9060288,5.6044759 5.9477685,4.9222843 5.9696768,3.8708255 L 6.0046843,2.1906902 5.8059902,2.1083885 C 5.6967085,2.0631225 5.4424342,2.0257181 5.2409363,2.0252676 5.0394382,2.0248171 4.0858727,2.0085925 3.1219016,1.989213 L 1.369227,1.9539775 1.1755675,2.1395151 0.98190793,2.3250527 0.98217912,3.7218484 c 2.7119e-4,1.4004191 0.0719523,2.0441441 0.24346778,2.1864894 0.096291,0.079914 0.5375294,0.1460975 1.0163447,0.1524459 0.1574624,0.00209 0.2652956,0.031861 0.2434447,0.067217 -0.024229,0.039204 0.3083365,0.043547 0.8698718,0.011361 0.5000047,-0.02866 1.0921495,-0.06175 1.3158783,-0.073535 z"
     id="path3014"
     inkscape:connector-curvature="0" />
  <path
     style="fill:#ececec"
     d="M 0.92811641,14.706185 C 0.80174102,14.668676 0.5885101,14.500028 0.41964186,14.304024 L 0.12881356,13.966461 0.09491525,11.474756 0.06101695,8.9830508 0.48577824,8.6333385 C 0.8255358,8.353611 0.97477871,8.2759895 1.2315409,8.2454656 1.4080917,8.2244773 3.6735958,8.1872528 6.2659944,8.1627445 l 4.7134516,-0.044561 0.377741,0.4080051 c 0.363542,0.3926685 0.379392,0.4254882 0.421659,0.8731114 0.06889,0.7295305 0.0523,4.1689685 -0.02135,4.4257545 -0.09129,0.318314 -0.37644,0.712778 -0.597238,0.826198 -0.151654,0.0779 -1.047764,0.09671 -5.0992411,0.10702 -2.9567143,0.0075 -5.0019778,-0.01323 -5.13290049,-0.05209 z M 8.4338983,13.209161 c 1.4401525,-0.04299 2.1167257,-0.134587 2.3623067,-0.319829 l 0.158451,-0.119519 0.0032,-1.778992 c 0.0017,-0.978445 -0.02391,-1.8046819 -0.05699,-1.8360823 -0.03308,-0.0314 -0.31158,-0.074561 -0.61888,-0.095913 C 9.7054827,9.0187706 2.4522066,9.0010524 1.6359765,9.0377049 0.91723512,9.0699797 0.94237288,9.0024584 0.94237288,10.90076 c 0,1.500187 0.009323,1.623585 0.13939332,1.845003 0.1164722,0.19827 0.1777866,0.237288 0.3728813,0.237288 0.1284185,0 0.2498102,0.0217 0.2697595,0.04821 0.019949,0.02652 0.4775764,0.09237 1.0169491,0.146345 0.9976849,0.09983 3.027984,0.111086 5.6925422,0.03155 z M 11.060555,10.21701 c -0.01253,-0.3057961 -0.02272,-0.03735 -0.02264,0.596549 6.7e-5,0.633899 0.01033,0.884096 0.02279,0.555994 0.01246,-0.328102 0.01239,-0.846747 -1.36e-4,-1.152543 l -6e-6,0 z"
     id="path3016"
     inkscape:connector-curvature="0" />
</svg>
